<svg xmlns="http://www.w3.org/2000/svg" xmlns:xlink="http://www.w3.org/1999/xlink" width="700" zoomAndPan="magnify" viewBox="0 0 525 149.999998" height="200" preserveAspectRatio="xMidYMid meet" version="1.0"><defs><g/></defs><g fill="#d8f5fd" fill-opacity="1"><g transform="translate(34.266287, 106.761986)"><g><path d="M 64.578125 -90.734375 L 89.09375 -90.734375 L 52.0625 -53.578125 L 91.25 0 L 66.859375 0 L 38.796875 -39.8125 L 29.953125 -30.703125 L 29.953125 0 L 11 0 L 11 -90.734375 L 29.953125 -90.734375 L 29.953125 -53.828125 Z M 64.578125 -90.734375 "/></g></g></g><g fill="#d8f5fd" fill-opacity="1"><g transform="translate(125.503524, 106.761986)"><g><path d="M 66.59375 -2.65625 L 66.59375 0 L 47.515625 0 C 46.503906 -2.945312 45.957031 -5.601562 45.875 -7.96875 C 42.675781 -4.507812 39.347656 -2.019531 35.890625 -0.5 C 32.429688 1.007812 28.515625 1.765625 24.140625 1.765625 C 17.984375 1.765625 13.03125 0 9.28125 -3.53125 C 5.539062 -7.070312 3.671875 -11.832031 3.671875 -17.8125 C 3.671875 -23.457031 5.207031 -28.15625 8.28125 -31.90625 C 11.351562 -35.65625 16.847656 -38.207031 24.765625 -39.5625 L 37.40625 -41.453125 C 40.601562 -41.953125 42.726562 -42.582031 43.78125 -43.34375 C 44.84375 -44.101562 45.375 -45.367188 45.375 -47.140625 C 45.375 -49.660156 44.46875 -51.570312 42.65625 -52.875 C 40.84375 -54.1875 37.867188 -54.84375 33.734375 -54.84375 C 27.085938 -54.84375 23.46875 -51.726562 22.875 -45.5 L 5.8125 -45.5 C 6.488281 -53.164062 9.078125 -59 13.578125 -63 C 18.085938 -67 25.359375 -69 35.390625 -69 C 43.984375 -69 50.679688 -67.3125 55.484375 -63.9375 C 60.285156 -60.570312 62.6875 -55.941406 62.6875 -50.046875 L 62.6875 -12.515625 C 62.6875 -9.390625 63 -7.085938 63.625 -5.609375 C 64.257812 -4.140625 65.25 -3.15625 66.59375 -2.65625 Z M 45.375 -24.390625 L 45.375 -32.734375 C 43.851562 -31.804688 42.207031 -31.066406 40.4375 -30.515625 C 38.664062 -29.972656 36.097656 -29.445312 32.734375 -28.9375 C 28.941406 -28.4375 26.097656 -27.40625 24.203125 -25.84375 C 22.304688 -24.28125 21.359375 -21.984375 21.359375 -18.953125 C 21.359375 -16.515625 22.113281 -14.554688 23.625 -13.078125 C 25.144531 -11.609375 27.128906 -10.875 29.578125 -10.875 C 32.179688 -10.875 34.703125 -11.441406 37.140625 -12.578125 C 39.585938 -13.710938 41.570312 -15.3125 43.09375 -17.375 C 44.613281 -19.4375 45.375 -21.773438 45.375 -24.390625 Z M 45.375 -24.390625 "/></g></g></g><g fill="#d8f5fd" fill-opacity="1"><g transform="translate(195.763776, 106.761986)"><g><path d="M 35.640625 -17.6875 L 49.40625 -67.234375 L 68.109375 -67.234375 L 44.484375 0.890625 C 42.210938 7.285156 40.109375 12.59375 38.171875 16.8125 C 36.984375 19.25 35.691406 21.203125 34.296875 22.671875 C 32.910156 24.148438 31.0625 25.25 28.75 25.96875 C 26.4375 26.6875 23.34375 27.046875 19.46875 27.046875 C 18.03125 27.046875 15.207031 26.960938 11 26.796875 L 11 12.640625 L 15.421875 12.890625 C 18.867188 12.890625 21.304688 12.148438 22.734375 10.671875 C 24.171875 9.203125 25.269531 6.570312 26.03125 2.78125 L 1.265625 -67.234375 L 20.984375 -67.234375 L 35.390625 -17.6875 Z M 35.640625 -17.6875 "/></g></g></g><g fill="#d8f5fd" fill-opacity="1"><g transform="translate(266.024028, 106.761986)"><g><path d="M 73.046875 -33.609375 C 73.046875 -26.367188 71.613281 -20.09375 68.75 -14.78125 C 65.882812 -9.476562 61.835938 -5.394531 56.609375 -2.53125 C 51.390625 0.332031 45.410156 1.765625 38.671875 1.765625 C 31.929688 1.765625 25.945312 0.332031 20.71875 -2.53125 C 15.5 -5.394531 11.457031 -9.476562 8.59375 -14.78125 C 5.726562 -20.09375 4.296875 -26.367188 4.296875 -33.609375 C 4.296875 -40.859375 5.75 -47.15625 8.65625 -52.5 C 11.5625 -57.851562 15.625 -61.941406 20.84375 -64.765625 C 26.070312 -67.585938 32.015625 -69 38.671875 -69 C 45.410156 -69 51.390625 -67.566406 56.609375 -64.703125 C 61.835938 -61.835938 65.882812 -57.75 68.75 -52.4375 C 71.613281 -47.132812 73.046875 -40.859375 73.046875 -33.609375 Z M 38.671875 -13.140625 C 44.066406 -13.140625 48.109375 -14.929688 50.796875 -18.515625 C 53.492188 -22.097656 54.84375 -27.128906 54.84375 -33.609375 C 54.84375 -40.097656 53.472656 -45.132812 50.734375 -48.71875 C 47.992188 -52.300781 43.929688 -54.09375 38.546875 -54.09375 C 33.398438 -54.09375 29.4375 -52.320312 26.65625 -48.78125 C 23.882812 -45.238281 22.5 -40.179688 22.5 -33.609375 C 22.5 -26.953125 23.863281 -21.875 26.59375 -18.375 C 29.332031 -14.882812 33.359375 -13.140625 38.671875 -13.140625 Z M 38.671875 -13.140625 "/></g></g></g><g fill="#d8f5fd" fill-opacity="1"><g transform="translate(343.234486, 106.761986)"><g><path d="M 52.3125 0 L 52.3125 -8.46875 L 52.0625 -8.46875 C 49.957031 -4.925781 47.195312 -2.332031 43.78125 -0.6875 C 40.375 0.945312 36.648438 1.765625 32.609375 1.765625 C 26.796875 1.765625 21.757812 0.25 17.5 -2.78125 C 13.25 -5.8125 9.984375 -10.039062 7.703125 -15.46875 C 5.429688 -20.90625 4.296875 -27.207031 4.296875 -34.375 C 4.296875 -41.363281 5.472656 -47.46875 7.828125 -52.6875 C 10.191406 -57.914062 13.5 -61.941406 17.75 -64.765625 C 22.007812 -67.585938 26.832031 -69 32.21875 -69 C 36.519531 -69 40.3125 -68.09375 43.59375 -66.28125 C 46.882812 -64.46875 49.582031 -61.878906 51.6875 -58.515625 L 51.9375 -58.515625 L 51.9375 -90.734375 L 69.625 -90.734375 L 69.625 0 Z M 52.703125 -32.09375 C 52.703125 -39.007812 51.414062 -44.335938 48.84375 -48.078125 C 46.269531 -51.828125 42.457031 -53.703125 37.40625 -53.703125 C 32.6875 -53.703125 29.019531 -51.910156 26.40625 -48.328125 C 23.800781 -44.753906 22.5 -39.722656 22.5 -33.234375 C 22.5 -27.253906 23.800781 -22.347656 26.40625 -18.515625 C 29.019531 -14.679688 32.5625 -12.765625 37.03125 -12.765625 C 41.832031 -12.765625 45.644531 -14.507812 48.46875 -18 C 51.289062 -21.5 52.703125 -26.195312 52.703125 -32.09375 Z M 52.703125 -32.09375 "/></g></g></g><g fill="#d8f5fd" fill-opacity="1"><g transform="translate(420.44493, 106.761986)"><g><path d="M 36.390625 -12.390625 C 39.003906 -12.390625 41.382812 -13.019531 43.53125 -14.28125 C 45.6875 -15.539062 47.097656 -17.351562 47.765625 -19.71875 L 65.96875 -19.71875 C 64.03125 -12.894531 60.445312 -7.609375 55.21875 -3.859375 C 50 -0.109375 43.722656 1.765625 36.390625 1.765625 C 25.273438 1.765625 16.914062 -1.304688 11.3125 -7.453125 C 5.707031 -13.609375 2.90625 -22.75 2.90625 -34.875 C 2.90625 -41.53125 4.144531 -47.425781 6.625 -52.5625 C 9.113281 -57.707031 12.757812 -61.734375 17.5625 -64.640625 C 22.363281 -67.546875 28.175781 -69 35 -69 C 44.601562 -69 52.289062 -65.921875 58.0625 -59.765625 C 63.832031 -53.617188 66.71875 -44.3125 66.71875 -31.84375 L 66.71875 -28.8125 L 20.59375 -28.8125 C 21.1875 -17.863281 26.453125 -12.390625 36.390625 -12.390625 Z M 34.75 -54.46875 C 26.664062 -54.46875 22.117188 -49.75 21.109375 -40.3125 L 48.53125 -40.3125 C 48.101562 -44.695312 46.664062 -48.148438 44.21875 -50.671875 C 41.78125 -53.203125 38.625 -54.46875 34.75 -54.46875 Z M 34.75 -54.46875 "/></g></g></g></svg>